<svg class="icon" viewBox="0 0 1024 1024" version="1.1" xmlns="http://www.w3.org/2000/svg" p-id="5958" height="128" width="128"><path d="M511.488 90.5728c-173.312 0-311.7056 138.4448-311.7056 311.7056 0 69.2224 23.0912 127.1296 57.9584 178.944l254.3104 352.2048 254.3104-352.2048c34.8672-51.7632 57.9584-115.3536 57.9584-178.944-1.1264-173.312-139.52-311.7056-312.832-311.7056z" fill="#D81E06" p-id="5959"></path><path d="M669.44 373.0432c0 29.184-13.7728 52.3264-41.2672 69.3248-27.5456 17.0496-65.8944 25.5488-114.9952 25.5488h-85.504v122.2656H359.7824V278.1696h153.344c49.152 0 87.5008 8.4992 114.9952 25.5488 27.5456 16.9984 41.3184 40.1408 41.3184 69.3248z m-67.84 0c0-23.0912-8.8576-38.912-26.5216-47.4624-17.7152-8.4992-44.2368-12.8-79.616-12.8H427.6224v120.4224h67.84c35.3792 0 61.952-4.2496 79.616-12.8 17.664-8.448 26.5216-24.2688 26.5216-47.36z" fill="#FFFFFF" p-id="5960"></path></svg>