<?xml version="1.0" encoding="utf-8"?>
<svg version="1.1" xmlns:xlink="http://www.w3.org/1999/xlink" width="12px" height="12px" viewBox="508 529  12 12" xmlns="http://www.w3.org/2000/svg">
  <path d="M 514 529  C 517.36 529  520 531.64  520 535  C 520 538.36  517.36 541  514 541  C 510.64 541  508 538.36  508 535  C 508 531.64  510.64 529  514 529  Z " fill-rule="nonzero" fill="#ffffff" stroke="none" />
  <path d="M 514 529.5  C 517.08 529.5  519.5 531.92  519.5 535  C 519.5 538.08  517.08 540.5  514 540.5  C 510.92 540.5  508.5 538.08  508.5 535  C 508.5 531.92  510.92 529.5  514 529.5  Z " stroke-width="1" stroke="#797979" fill="none" />
  <path d="M 514 538  C 512.32 538  511 536.68  511 535  C 511 533.32  512.32 532  514 532  C 515.68 532  517 533.32  517 535  C 517 536.68  515.68 538  514 538  " fill-rule="nonzero" fill="#797979" stroke="none" />
</svg>