<?xml version="1.0" encoding="utf-8"?>
<svg version="1.1" xmlns:xlink="http://www.w3.org/1999/xlink" width="12px" height="12px" viewBox="508 558  12 12" xmlns="http://www.w3.org/2000/svg">
  <path d="M 514 558  C 517.36 558  520 560.64  520 564  C 520 567.36  517.36 570  514 570  C 510.64 570  508 567.36  508 564  C 508 560.64  510.64 558  514 558  Z " fill-rule="nonzero" fill="#ffffff" stroke="none" />
  <path d="M 514 558.5  C 517.08 558.5  519.5 560.92  519.5 564  C 519.5 567.08  517.08 569.5  514 569.5  C 510.92 569.5  508.5 567.08  508.5 564  C 508.5 560.92  510.92 558.5  514 558.5  Z " stroke-width="1" stroke="#797979" fill="none" />
  <path d="M 514 567  C 512.32 567  511 565.68  511 564  C 511 562.32  512.32 561  514 561  C 515.68 561  517 562.32  517 564  C 517 565.68  515.68 567  514 567  " fill-rule="nonzero" fill="#797979" stroke="none" />
</svg>