<?xml version="1.0" encoding="utf-8"?>
<svg version="1.1" xmlns:xlink="http://www.w3.org/1999/xlink" width="8px" height="5px" xmlns="http://www.w3.org/2000/svg">
  <g transform="matrix(1 0 0 1 -236 -763 )">
    <path d="M 6.36799999999998 4.93333333333334  L 6.36799999999998 2.95999999999999  L 7.94666666666667 2.95999999999999  L 7.94666666666667 4.93333333333334  L 6.36799999999998 4.93333333333334  Z M 3.21066666666666 1.97333333333333  L 3.21066666666666 0  L 4.78933333333334 0  L 4.78933333333334 1.97333333333333  L 3.21066666666666 1.97333333333333  Z M 6.36799999999998 1.97333333333333  L 6.36799999999998 0  L 7.94666666666667 0  L 7.94666666666667 1.97333333333333  L 6.36799999999998 1.97333333333333  Z M 0.0462222222222181 4.93333333333334  L 0.0462222222222181 2.95999999999999  L 1.62488888888889 2.95999999999999  L 1.62488888888889 4.93333333333334  L 0.0462222222222181 4.93333333333334  Z M 3.21066666666666 4.93333333333334  L 3.21066666666666 2.95999999999999  L 4.78933333333334 2.95999999999999  L 4.78933333333334 4.93333333333334  L 3.21066666666666 4.93333333333334  Z M 0.0462222222222181 1.97333333333333  L 0.0462222222222181 0  L 1.62488888888889 0  L 1.62488888888889 1.97333333333333  L 0.0462222222222181 1.97333333333333  Z " fill-rule="nonzero" fill="#d7d7d7" stroke="none" transform="matrix(1 0 0 1 236 763 )" />
  </g>
</svg>