<?xml version="1.0" encoding="utf-8"?>
<svg version="1.1" xmlns:xlink="http://www.w3.org/1999/xlink" width="13px" height="14px" xmlns="http://www.w3.org/2000/svg">
  <g transform="matrix(1 0 0 1 -233 -756 )">
    <path d="M 13 1.02368000000001  L 9.7404210526316 1.02368000000001  L 9.7404210526316 0.029120000000006  L 8.93031578947367 0.029120000000006  L 8.93031578947367 1.02368000000001  L 4.0696842105263 1.02368000000001  L 4.0696842105263 0.029120000000006  L 3.25957894736843 0.029120000000006  L 3.25957894736843 1.02368000000001  L 0 1.02368000000001  L 0 14  L 13 14  L 13 1.02368000000001  Z M 12.1780350877193 6  L 12.1780350877193 13  L 0.821964912280688 13  L 0.821964912280688 6  L 12.1780350877193 6  Z M 12.1707368421053 5.01088000000001  L 12.1780350877193 5  L 0.821964912280688 5  L 0.821964912280688 1.91968000000001  L 3.25228070175437 1.91968000000001  L 3.25228070175437 3.01279999999998  L 4.06238596491228 3.01279999999998  L 4.06238596491228 1.91968000000001  L 8.93031578947367 1.91968000000001  L 8.93031578947367 3.01279999999998  L 9.7404210526316 3.01279999999998  L 9.7404210526316 1.91968000000001  L 12.1707368421053 1.91968000000001  L 12.1707368421053 5.01088000000001  Z " fill-rule="nonzero" fill="#d7d7d7" stroke="none" transform="matrix(1 0 0 1 233 756 )" />
  </g>
</svg>