<?xml version="1.0" encoding="utf-8"?>
<svg version="1.1" xmlns:xlink="http://www.w3.org/1999/xlink" width="19px" height="14px" xmlns="http://www.w3.org/2000/svg">
  <g transform="matrix(1 0 0 1 -238 -804 )">
    <path d="M 19 1.02368000000001  L 14.236 1.02368000000001  L 14.236 0.029120000000006  L 13.052 0.029120000000006  L 13.052 1.02368000000001  L 5.94799999999998 1.02368000000001  L 5.94799999999998 0.029120000000006  L 4.76400000000001 0.029120000000006  L 4.76400000000001 1.02368000000001  L 0 1.02368000000001  L 0 14  L 19 14  L 19 1.02368000000001  Z M 17.7986666666667 6  L 17.7986666666667 13  L 1.20133333333331 13  L 1.20133333333331 6  L 17.7986666666667 6  Z M 17.788 5.01088000000001  L 17.7986666666667 5  L 1.20133333333331 5  L 1.20133333333331 1.91968000000001  L 4.75333333333332 1.91968000000001  L 4.75333333333332 3.01279999999998  L 5.93733333333334 3.01279999999998  L 5.93733333333334 1.91968000000001  L 13.052 1.91968000000001  L 13.052 3.01279999999998  L 14.236 3.01279999999998  L 14.236 1.91968000000001  L 17.788 1.91968000000001  L 17.788 5.01088000000001  Z " fill-rule="nonzero" fill="#d7d7d7" stroke="none" transform="matrix(1 0 0 1 238 804 )" />
  </g>
</svg>