<?xml version="1.0" encoding="utf-8"?>
<svg version="1.1" xmlns:xlink="http://www.w3.org/1999/xlink" width="12px" height="5px" xmlns="http://www.w3.org/2000/svg">
  <g transform="matrix(1 0 0 1 -241 -811 )">
    <path d="M 9.55199999999997 4.93333333333334  L 9.55199999999997 2.95999999999999  L 11.92 2.95999999999999  L 11.92 4.93333333333334  L 9.55199999999997 4.93333333333334  Z M 4.81599999999998 1.97333333333333  L 4.81599999999998 0  L 7.18400000000002 0  L 7.18400000000002 1.97333333333333  L 4.81599999999998 1.97333333333333  Z M 9.55199999999997 1.97333333333333  L 9.55199999999997 0  L 11.92 0  L 11.92 1.97333333333333  L 9.55199999999997 1.97333333333333  Z M 0.0693333333333271 4.93333333333334  L 0.0693333333333271 2.95999999999999  L 2.43733333333334 2.95999999999999  L 2.43733333333334 4.93333333333334  L 0.0693333333333271 4.93333333333334  Z M 4.81599999999998 4.93333333333334  L 4.81599999999998 2.95999999999999  L 7.18400000000002 2.95999999999999  L 7.18400000000002 4.93333333333334  L 4.81599999999998 4.93333333333334  Z M 0.0693333333333271 1.97333333333333  L 0.0693333333333271 0  L 2.43733333333334 0  L 2.43733333333334 1.97333333333333  L 0.0693333333333271 1.97333333333333  Z " fill-rule="nonzero" fill="#d7d7d7" stroke="none" transform="matrix(1 0 0 1 241 811 )" />
  </g>
</svg>